<?xml version="1.0" encoding="UTF-8" ?>
<!DOCTYPE svg PUBLIC "-//W3C//DTD SVG 1.1//EN" "http://www.w3.org/Graphics/SVG/1.1/DTD/svg11.dtd">
<svg width="1000pt" height="1000pt" viewBox="0 0 1000 1000" version="1.1" xmlns="http://www.w3.org/2000/svg">
<g id="#1c1e22ff">
<path fill="#1c1e22" opacity="1.00" d=" M 0.00 0.00 L 1000.00 0.00 L 1000.00 1000.00 L 0.00 1000.00 L 0.00 0.00 M 478.52 74.82 C 423.83 77.54 369.71 91.06 320.18 114.40 C 246.66 148.73 183.62 204.84 140.48 273.51 C 116.77 311.25 99.03 352.74 88.12 395.96 C 73.59 453.69 71.41 514.44 81.38 573.10 C 88.99 617.68 103.88 660.99 125.10 700.93 C 163.40 773.10 222.97 833.82 294.43 873.44 C 361.31 910.76 438.45 929.27 514.98 926.49 C 571.92 924.70 628.45 911.18 680.04 887.02 C 758.33 850.68 824.81 789.67 868.14 715.06 C 894.18 670.27 912.04 620.71 920.30 569.54 C 932.84 492.39 924.11 411.76 894.40 339.40 C 863.65 263.38 810.15 196.90 742.85 150.12 C 706.01 124.45 665.03 104.75 622.01 91.90 C 575.63 77.99 526.85 72.38 478.52 74.82 Z" />
<path fill="#1c1e22" opacity="1.00" d=" M 297.38 170.25 C 361.96 129.86 438.87 109.80 514.94 112.77 C 577.27 114.94 638.97 132.60 693.00 163.75 C 692.80 216.83 692.75 269.90 692.56 322.98 C 692.41 343.81 692.08 364.64 691.58 385.46 C 668.96 390.64 646.54 396.69 623.80 401.35 C 623.47 400.72 622.80 399.44 622.47 398.81 C 641.54 363.21 663.20 329.02 680.66 292.56 C 654.42 267.70 628.33 242.68 602.17 217.74 C 578.85 195.63 555.32 173.74 531.79 151.87 C 540.51 168.92 549.37 185.92 558.15 202.95 C 574.63 234.95 596.46 263.80 613.55 295.44 C 599.18 309.98 585.17 324.87 570.58 339.19 C 563.30 334.72 555.89 330.46 548.38 326.40 C 551.66 319.51 554.88 312.59 558.25 305.74 C 537.73 286.44 517.33 267.00 496.61 247.92 C 503.64 267.80 510.53 287.72 517.77 307.52 C 515.39 309.97 512.96 312.46 510.00 314.22 C 500.32 314.63 490.61 314.53 480.93 314.28 C 477.61 313.08 475.32 309.97 472.66 307.72 C 479.69 287.70 486.85 267.72 493.85 247.69 C 473.25 267.00 452.69 286.35 432.13 305.69 C 435.42 312.62 438.84 319.48 441.95 326.49 C 434.28 330.32 427.11 335.07 419.56 339.09 C 405.20 324.66 391.10 309.97 376.83 295.45 C 389.92 271.20 405.77 248.61 419.91 224.99 C 433.94 201.21 445.73 176.21 458.64 151.82 C 421.64 186.09 384.92 220.67 348.54 255.61 C 335.65 267.98 322.66 280.25 309.72 292.57 C 327.13 329.01 348.90 363.12 367.81 398.76 C 367.53 399.41 366.97 400.72 366.69 401.37 C 343.89 396.66 321.36 390.75 298.72 385.35 C 297.18 313.66 297.87 241.95 297.38 170.25 Z" />
<path fill="#1c1e22" opacity="1.00" d=" M 696.29 165.57 C 731.47 186.52 763.54 212.74 790.60 243.51 C 844.87 304.66 878.94 383.40 886.10 464.87 C 892.28 531.67 880.96 600.06 853.10 661.12 C 842.61 684.21 829.84 706.28 815.03 726.88 C 810.63 715.22 806.36 703.50 801.90 691.86 C 795.57 676.29 788.24 661.16 781.86 645.62 C 770.53 656.60 758.60 666.96 746.90 677.55 C 751.48 684.60 757.57 690.49 762.92 696.95 C 765.77 700.12 767.94 703.85 771.02 706.83 C 782.08 718.31 793.08 729.84 804.13 741.33 C 771.82 782.26 731.17 816.58 685.39 841.54 C 683.77 819.02 684.38 796.20 688.97 774.05 C 691.71 759.82 697.39 746.43 701.70 732.66 C 706.55 718.19 711.07 703.61 715.90 689.13 C 718.23 682.11 721.60 675.20 727.11 670.11 C 739.08 658.77 751.01 647.37 762.51 635.54 C 769.69 628.13 775.77 619.23 777.89 608.97 C 779.45 602.74 780.39 595.25 775.92 589.95 C 770.82 583.99 762.48 582.55 755.05 582.13 C 746.68 581.74 738.30 582.78 730.13 584.49 C 720.13 586.75 711.16 592.88 705.17 601.16 C 683.23 631.01 664.95 663.57 651.16 697.96 C 639.92 725.85 632.42 755.05 625.10 784.16 C 617.97 813.51 612.48 843.25 608.63 873.20 C 581.85 881.00 554.21 885.81 526.38 887.70 C 526.38 786.80 526.36 685.90 526.39 585.00 C 527.42 574.44 525.53 563.37 519.57 554.44 C 514.71 547.12 507.09 540.81 498.03 540.15 C 488.92 539.72 480.52 545.03 474.78 551.74 C 466.95 560.81 463.73 573.16 464.66 584.98 C 464.72 685.62 464.66 786.26 464.69 886.91 C 438.07 884.48 411.75 879.16 386.17 871.39 C 380.43 828.24 371.16 785.62 359.19 743.78 C 345.23 692.99 321.80 644.88 290.65 602.42 C 285.49 595.69 278.64 590.24 270.85 586.86 C 262.75 583.28 253.77 582.41 245.01 582.06 C 237.18 582.02 228.75 582.56 222.08 587.12 C 217.57 590.12 215.32 595.68 215.77 601.00 C 216.45 608.79 218.65 616.54 222.75 623.23 C 226.05 628.75 230.41 633.52 234.88 638.10 C 244.18 647.45 253.61 656.68 263.21 665.73 C 266.60 669.02 270.33 672.06 272.89 676.09 C 276.99 682.06 279.04 689.09 281.29 695.89 C 286.19 711.20 291.16 726.49 296.24 741.74 C 299.04 750.13 302.27 758.40 304.35 767.02 C 310.15 790.25 311.25 814.42 309.78 838.24 C 265.32 812.94 225.87 778.80 194.63 738.28 C 205.78 726.87 217.12 715.64 228.19 704.15 C 234.87 694.86 243.36 687.04 249.93 677.67 C 238.26 666.99 226.31 656.62 214.89 645.67 C 208.26 661.92 200.48 677.68 194.05 694.02 C 190.55 703.88 187.09 713.75 183.72 723.65 C 144.05 667.17 119.77 599.98 114.58 531.13 C 108.55 455.58 125.05 378.32 162.04 312.11 C 193.10 255.98 238.40 207.91 292.37 173.27 C 282.39 216.79 272.21 260.29 263.71 304.14 C 256.06 343.06 249.16 382.13 242.10 421.17 C 275.69 440.00 310.03 457.45 343.65 476.24 C 343.31 482.48 343.24 488.74 343.40 495.00 C 343.11 504.15 346.42 512.84 348.19 521.70 C 320.21 519.10 292.21 516.72 264.15 515.10 C 256.87 533.13 248.53 550.70 240.61 568.45 C 246.72 569.11 252.85 569.48 258.98 570.01 C 275.83 570.66 291.64 579.89 302.07 592.90 C 305.65 587.80 308.76 582.21 312.68 577.45 C 330.98 584.15 349.43 590.44 367.68 597.26 C 373.78 620.02 379.86 642.79 386.39 665.43 C 387.88 669.95 388.66 674.81 390.99 679.00 C 405.36 698.19 419.67 717.42 434.11 736.56 C 434.03 710.36 433.65 684.17 433.55 657.97 C 434.01 633.30 434.27 608.61 434.89 583.95 C 436.73 572.54 438.84 561.02 443.25 550.28 C 446.53 542.17 452.24 535.42 458.19 529.13 C 463.21 523.88 467.89 518.09 474.12 514.19 C 480.36 510.33 487.99 511.06 495.01 511.00 C 501.34 511.10 508.02 510.40 513.97 513.03 C 519.48 515.57 523.65 520.14 527.79 524.44 C 533.78 530.98 540.27 537.27 544.58 545.12 C 549.44 553.98 551.69 563.95 553.68 573.78 C 554.43 578.17 555.61 582.53 555.62 587.02 C 555.97 611.67 556.50 636.33 556.81 660.98 C 556.58 686.21 556.41 711.44 556.17 736.67 C 569.39 719.11 582.53 701.47 595.71 683.88 C 597.68 681.10 600.24 678.59 601.06 675.18 C 608.55 650.27 615.15 625.10 621.95 599.99 C 642.53 591.95 663.53 585.04 684.24 577.33 C 687.71 582.51 691.18 587.69 694.61 592.90 C 703.70 581.53 716.80 573.25 731.17 570.64 C 739.45 569.73 747.77 569.25 756.06 568.49 C 748.33 550.72 739.77 533.32 732.75 515.25 C 702.46 516.63 672.26 519.62 642.06 522.29 C 643.62 515.13 645.68 508.05 646.79 500.79 C 647.16 492.62 647.16 484.42 646.72 476.25 C 680.32 457.43 714.69 440.02 748.28 421.16 C 739.61 373.22 731.16 325.24 721.31 277.53 C 713.51 240.09 704.75 202.86 696.29 165.57 Z" />
</g>
<g id="#ffffffff">
<path fill="#ffffff" opacity="1.00" d=" M 478.52 74.82 C 526.85 72.38 575.63 77.99 622.01 91.90 C 665.03 104.75 706.01 124.45 742.85 150.12 C 810.15 196.90 863.65 263.38 894.40 339.40 C 924.11 411.76 932.84 492.39 920.30 569.54 C 912.04 620.71 894.18 670.27 868.14 715.06 C 824.81 789.67 758.33 850.68 680.04 887.02 C 628.45 911.18 571.92 924.70 514.98 926.49 C 438.45 929.27 361.31 910.76 294.43 873.44 C 222.97 833.82 163.40 773.10 125.10 700.93 C 103.88 660.99 88.99 617.68 81.38 573.10 C 71.41 514.44 73.59 453.69 88.12 395.96 C 99.03 352.74 116.77 311.25 140.48 273.51 C 183.62 204.84 246.66 148.73 320.18 114.40 C 369.71 91.06 423.83 77.54 478.52 74.82 M 297.38 170.25 C 297.87 241.95 297.18 313.66 298.72 385.35 C 321.36 390.75 343.89 396.66 366.69 401.37 C 366.97 400.72 367.53 399.41 367.81 398.76 C 348.90 363.12 327.13 329.01 309.72 292.57 C 322.66 280.25 335.65 267.98 348.54 255.61 C 384.92 220.67 421.64 186.09 458.64 151.82 C 445.73 176.21 433.94 201.21 419.91 224.99 C 405.77 248.61 389.92 271.20 376.83 295.45 C 391.10 309.97 405.20 324.66 419.56 339.09 C 427.11 335.07 434.28 330.32 441.95 326.49 C 438.84 319.48 435.42 312.62 432.13 305.69 C 452.69 286.35 473.25 267.00 493.85 247.69 C 486.85 267.72 479.69 287.70 472.66 307.72 C 475.32 309.97 477.61 313.08 480.93 314.28 C 490.61 314.53 500.32 314.63 510.00 314.22 C 512.96 312.46 515.39 309.97 517.77 307.52 C 510.53 287.72 503.64 267.80 496.61 247.92 C 517.33 267.00 537.73 286.44 558.25 305.74 C 554.88 312.59 551.66 319.51 548.38 326.40 C 555.89 330.46 563.30 334.72 570.58 339.19 C 585.17 324.87 599.18 309.98 613.55 295.44 C 596.46 263.80 574.63 234.95 558.15 202.95 C 549.37 185.92 540.51 168.92 531.79 151.87 C 555.32 173.74 578.85 195.63 602.17 217.74 C 628.33 242.68 654.42 267.70 680.66 292.56 C 663.20 329.02 641.54 363.21 622.47 398.81 C 622.80 399.44 623.47 400.72 623.80 401.35 C 646.54 396.69 668.96 390.64 691.58 385.46 C 692.08 364.64 692.41 343.81 692.56 322.98 C 692.75 269.90 692.80 216.83 693.00 163.75 C 638.97 132.60 577.27 114.94 514.94 112.77 C 438.87 109.80 361.96 129.86 297.38 170.25 M 696.29 165.57 C 704.75 202.86 713.51 240.09 721.31 277.53 C 731.16 325.24 739.61 373.22 748.28 421.16 C 714.69 440.02 680.32 457.43 646.72 476.25 C 647.16 484.42 647.16 492.62 646.79 500.79 C 645.68 508.05 643.62 515.13 642.06 522.29 C 672.26 519.62 702.46 516.63 732.75 515.25 C 739.77 533.32 748.33 550.72 756.06 568.49 C 747.77 569.25 739.45 569.73 731.17 570.64 C 716.80 573.25 703.70 581.53 694.61 592.90 C 691.18 587.69 687.71 582.51 684.24 577.33 C 663.53 585.04 642.53 591.95 621.95 599.99 C 615.15 625.10 608.55 650.27 601.06 675.18 C 600.24 678.59 597.68 681.10 595.71 683.88 C 582.53 701.47 569.39 719.11 556.17 736.67 C 556.41 711.44 556.58 686.21 556.81 660.98 C 556.50 636.33 555.97 611.67 555.62 587.02 C 555.61 582.53 554.43 578.17 553.68 573.78 C 551.69 563.95 549.44 553.98 544.58 545.12 C 540.27 537.27 533.78 530.98 527.79 524.44 C 523.65 520.14 519.48 515.57 513.97 513.03 C 508.02 510.40 501.34 511.10 495.01 511.00 C 487.99 511.06 480.36 510.33 474.12 514.19 C 467.89 518.09 463.21 523.88 458.19 529.13 C 452.24 535.42 446.53 542.17 443.25 550.28 C 438.84 561.02 436.73 572.54 434.89 583.95 C 434.27 608.61 434.01 633.30 433.55 657.97 C 433.65 684.17 434.03 710.36 434.11 736.56 C 419.67 717.42 405.36 698.19 390.99 679.00 C 388.66 674.81 387.88 669.95 386.39 665.43 C 379.86 642.79 373.78 620.02 367.68 597.26 C 349.43 590.44 330.98 584.15 312.68 577.45 C 308.76 582.21 305.65 587.80 302.07 592.90 C 291.64 579.89 275.83 570.66 258.98 570.01 C 252.85 569.48 246.72 569.11 240.61 568.45 C 248.53 550.70 256.87 533.13 264.15 515.10 C 292.21 516.72 320.21 519.10 348.19 521.70 C 346.42 512.84 343.11 504.15 343.40 495.00 C 343.24 488.74 343.31 482.48 343.65 476.24 C 310.03 457.45 275.69 440.00 242.10 421.17 C 249.16 382.13 256.06 343.06 263.71 304.14 C 272.21 260.29 282.39 216.79 292.37 173.27 C 238.40 207.91 193.10 255.98 162.04 312.11 C 125.05 378.32 108.55 455.58 114.58 531.13 C 119.77 599.98 144.05 667.17 183.72 723.65 C 187.09 713.75 190.55 703.88 194.05 694.02 C 200.48 677.68 208.26 661.92 214.89 645.67 C 226.31 656.62 238.26 666.99 249.93 677.67 C 243.36 687.04 234.87 694.86 228.19 704.15 C 217.12 715.64 205.78 726.87 194.63 738.28 C 225.87 778.80 265.32 812.94 309.78 838.24 C 311.25 814.42 310.15 790.25 304.35 767.02 C 302.27 758.40 299.04 750.13 296.24 741.74 C 291.16 726.49 286.19 711.20 281.29 695.89 C 279.04 689.09 276.99 682.06 272.89 676.09 C 270.33 672.06 266.60 669.02 263.21 665.73 C 253.61 656.68 244.18 647.45 234.88 638.10 C 230.41 633.52 226.05 628.75 222.75 623.23 C 218.65 616.54 216.45 608.79 215.77 601.00 C 215.32 595.68 217.57 590.12 222.08 587.12 C 228.75 582.56 237.18 582.02 245.01 582.06 C 253.77 582.41 262.75 583.28 270.85 586.86 C 278.64 590.24 285.49 595.69 290.65 602.42 C 321.80 644.88 345.23 692.99 359.19 743.78 C 371.16 785.62 380.43 828.24 386.17 871.39 C 411.75 879.16 438.07 884.48 464.69 886.91 C 464.66 786.26 464.72 685.62 464.66 584.98 C 463.73 573.16 466.95 560.81 474.78 551.74 C 480.52 545.03 488.92 539.72 498.03 540.15 C 507.09 540.81 514.71 547.12 519.57 554.44 C 525.53 563.37 527.42 574.44 526.39 585.00 C 526.36 685.90 526.38 786.80 526.38 887.70 C 554.21 885.81 581.85 881.00 608.63 873.20 C 612.48 843.25 617.97 813.51 625.10 784.16 C 632.42 755.05 639.92 725.85 651.16 697.96 C 664.95 663.57 683.23 631.01 705.17 601.16 C 711.16 592.88 720.13 586.75 730.13 584.49 C 738.30 582.78 746.68 581.74 755.05 582.13 C 762.48 582.55 770.82 583.99 775.92 589.95 C 780.39 595.25 779.45 602.74 777.89 608.97 C 775.77 619.23 769.69 628.13 762.51 635.54 C 751.01 647.37 739.08 658.77 727.11 670.11 C 721.60 675.20 718.23 682.11 715.90 689.13 C 711.07 703.61 706.55 718.19 701.70 732.66 C 697.39 746.43 691.71 759.82 688.97 774.05 C 684.38 796.20 683.77 819.02 685.39 841.54 C 731.17 816.58 771.82 782.26 804.13 741.33 C 793.08 729.84 782.08 718.31 771.02 706.83 C 767.94 703.85 765.77 700.12 762.92 696.95 C 757.57 690.49 751.48 684.60 746.90 677.55 C 758.60 666.96 770.53 656.60 781.86 645.62 C 788.24 661.16 795.57 676.29 801.90 691.86 C 806.36 703.50 810.63 715.22 815.03 726.88 C 829.84 706.28 842.61 684.21 853.10 661.12 C 880.96 600.06 892.28 531.67 886.10 464.87 C 878.94 383.40 844.87 304.66 790.60 243.51 C 763.54 212.74 731.47 186.52 696.29 165.57 Z" />
</g>
</svg>
